<?xml version="1.0" standalone="no"?>
<!DOCTYPE svg PUBLIC "-//W3C//DTD SVG 20010904//EN"
 "http://www.w3.org/TR/2001/REC-SVG-20010904/DTD/svg10.dtd">
<svg version="1.0" xmlns="http://www.w3.org/2000/svg"
 width="700.000000pt" height="700.000000pt" viewBox="0 0 700.000000 700.000000"
 preserveAspectRatio="xMidYMid meet">
<g transform="translate(0.000000,700.000000) scale(0.100000,-0.100000)"
fill="#000000" stroke="none">
<path d="M1193 3505 l0 -2865 483 0 484 0 1 28 c0 15 0 566 1 1225 l0 1197
1344 0 1344 0 0 -1225 0 -1225 488 2 487 3 1 2863 1 2862 -489 0 -488 0 0
-1184 0 -1184 -1344 0 -1344 0 0 1157 c-1 636 -1 1168 -1 1184 l-1 27 -484 0
-483 0 0 -2865z"/>
</g>
</svg>
